<svg xmlns="http://www.w3.org/2000/svg" version="1.1" xmlns:xlink="http://www.w3.org/1999/xlink" xmlns:svgjs="http://svgjs.com/svgjs" width="1920" height="1080" preserveAspectRatio="none" viewBox="0 0 1920 1080"><g mask="url(&quot;#SvgjsMask1020&quot;)" fill="none"><rect width="1920" height="1080" x="0" y="0" fill="rgba(22, 22, 27, 1)"></rect><path d="M0,644.682C137.514,624.234,284.704,698.892,408.531,635.686C535.779,570.733,613.618,437.106,666.597,304.425C717.954,175.807,731.998,34.325,702.702,-101.033C674.596,-230.893,592.496,-337.593,505.843,-438.315C418.917,-539.355,321.099,-626.638,200.923,-684.282C63.812,-750.049,-84.686,-827.366,-232.722,-792.579C-382.459,-757.393,-484.158,-622.748,-578.367,-501.158C-668.491,-384.84,-747.274,-255.964,-761.94,-109.55C-776.289,33.701,-700.527,163.06,-658.698,300.817C-609.571,462.609,-644.754,691.773,-494.863,770.022C-340.899,850.397,-171.792,670.228,0,644.682" fill="#101014"></path><path d="M1920 1921.6C2076.302 1914.135 2227.916 1842.232 2339.082 1732.104 2440.422 1631.71 2445.639 1476.818 2501.475 1345.551 2555.447 1218.666 2656.775 1111.135 2661.83 973.341 2667.3469999999998 822.941 2621.497 670.861 2530.627 550.889 2436.6459999999997 426.80999999999995 2301.523 332.14 2149.809 297.34299999999996 2002.149 263.476 1845.942 297.04100000000005 1709.328 362.51599999999996 1584.901 422.15 1510.787 542.842 1420.275 646.986 1329.613 751.303 1215.3029999999999 840.1800000000001 1178.425 973.378 1139.23 1114.945 1159.741 1266.155 1210.705 1403.924 1264.2849999999999 1548.763 1349.635 1682.3609999999999 1474.377 1773.403 1603.435 1867.596 1760.406 1929.222 1920 1921.6" fill="#1c1c22"></path></g><defs><mask id="SvgjsMask1020"><rect width="1920" height="1080" fill="#ffffff"></rect></mask></defs></svg>